<svg width="763" height="446" viewBox="0 0 763 446" fill="none" xmlns="http://www.w3.org/2000/svg">
<path fill-rule="evenodd" clip-rule="evenodd" d="M105.687 1.08065H656.183C668.224 1.08065 671.603 1.08065 676.787 2.83526C682.916 5.09005 687.772 9.97808 690.011 16.1474C691.755 21.3663 691.755 24.7674 691.755 36.8891C691.755 70.4604 691.755 404.924 691.755 404.924C691.755 417.045 691.755 420.446 690.011 425.665C687.772 431.835 682.916 436.723 676.787 438.977C671.603 440.732 668.224 440.732 656.183 440.732C622.834 440.732 105.687 440.732 105.687 440.732C93.6457 440.732 90.2663 440.732 85.0828 438.977C78.9539 436.723 74.0984 431.835 71.8585 425.665C70.1153 420.446 70.1153 417.045 70.1153 404.924C70.1153 371.352 70.1153 36.8891 70.1153 36.8891C70.1153 24.7674 70.1153 21.3663 71.8585 16.1474C74.0984 9.97808 78.9539 5.09005 85.0828 2.83526C90.2663 1.08065 93.6457 1.08065 105.687 1.08065Z" fill="url(#paint0_linear_26_141)"/>
<path fill-rule="evenodd" clip-rule="evenodd" d="M106.587 3.28155H654.862C666.854 3.28155 670.219 3.28155 675.383 5.01685C681.487 7.24682 686.323 12.0811 688.553 18.1825C690.29 23.3439 690.29 26.7076 690.29 38.696C690.29 71.8978 690.29 402.68 690.29 402.68C690.29 414.669 690.29 418.032 688.553 423.194C686.323 429.295 681.487 434.13 675.383 436.36C670.219 438.095 666.854 438.095 654.862 438.095C621.647 438.095 106.587 438.095 106.587 438.095C94.5947 438.095 91.229 438.095 86.0664 436.36C79.9622 434.13 75.1263 429.295 72.8955 423.194C71.1593 418.032 71.1593 414.669 71.1593 402.68C71.1593 369.479 71.1593 38.696 71.1593 38.696C71.1593 26.7076 71.1593 23.3439 72.8955 18.1825C75.1263 12.0811 79.9622 7.24682 86.0664 5.01685C91.229 3.28155 94.5947 3.28155 106.587 3.28155Z" stroke="#F3F3F3" stroke-width="2"/>
<path fill-rule="evenodd" clip-rule="evenodd" d="M379.89 16.0553C381.162 16.0553 382.192 17.093 382.192 18.373C382.192 19.6531 381.162 20.6907 379.89 20.6907C378.618 20.6907 377.588 19.6531 377.588 18.373C377.588 17.093 378.618 16.0553 379.89 16.0553Z" fill="#F2F2F2"/>
<g filter="url(#filter0_i_26_141)">
<path fill-rule="evenodd" clip-rule="evenodd" d="M0.709102 426.113H761.553V430.392H0.709102V426.113Z" fill="white"/>
<path fill-rule="evenodd" clip-rule="evenodd" d="M0.709102 426.113H761.553V430.392H0.709102V426.113Z" fill="url(#paint1_linear_26_141)" style="mix-blend-mode:multiply"/>
</g>
<g style="mix-blend-mode:multiply" opacity="0.1">
<path fill-rule="evenodd" clip-rule="evenodd" d="M733.215 426.113H761.551V430.392H733.215V426.113Z" fill="url(#paint2_linear_26_141)"/>
</g>
<g style="mix-blend-mode:multiply" opacity="0.1">
<path fill-rule="evenodd" clip-rule="evenodd" d="M0.709187 426.113H29.046V430.392H0.709187V426.113Z" fill="url(#paint3_linear_26_141)"/>
</g>
<path fill-rule="evenodd" clip-rule="evenodd" d="M0.70814 430.391H761.552C757.056 433.218 717.172 444.814 584.447 441.802C572.725 441.802 242.397 441.445 170.021 441.445C86.0219 441.445 51.2491 441.785 19.5116 435.628C8.40087 433.473 2.83713 431.693 0.70814 430.391Z" fill="white"/>
<path fill-rule="evenodd" clip-rule="evenodd" d="M0.70814 430.391H761.552C757.056 433.218 717.172 444.814 584.447 441.802C572.725 441.802 242.397 441.445 170.021 441.445C86.0219 441.445 51.2491 441.785 19.5116 435.628C8.40087 433.473 2.83713 431.693 0.70814 430.391Z" fill="url(#paint4_linear_26_141)" style="mix-blend-mode:multiply"/>
<path fill-rule="evenodd" clip-rule="evenodd" d="M0.70814 430.391H761.552C757.056 433.218 717.172 444.814 584.447 441.802C572.725 441.802 242.397 441.445 170.021 441.445C86.0219 441.445 51.2491 441.785 19.5116 435.628C8.40087 433.473 2.83713 431.693 0.70814 430.391Z" fill="url(#paint5_linear_26_141)" style="mix-blend-mode:multiply"/>
<path fill-rule="evenodd" clip-rule="evenodd" d="M0.70814 430.391H761.552C757.056 433.218 717.172 444.814 584.447 441.802C572.725 441.802 242.397 441.445 170.021 441.445C86.0219 441.445 51.2491 441.785 19.5116 435.628C8.40087 433.473 2.83713 431.693 0.70814 430.391Z" fill="url(#paint6_linear_26_141)" style="mix-blend-mode:multiply"/>
<path fill-rule="evenodd" clip-rule="evenodd" d="M0.70814 430.391H761.552C757.056 433.218 717.172 444.814 584.447 441.802C572.725 441.802 242.397 441.445 170.021 441.445C86.0219 441.445 51.2491 441.785 19.5116 435.628C8.40087 433.473 2.83713 431.693 0.70814 430.391Z" fill="url(#paint7_linear_26_141)" style="mix-blend-mode:multiply"/>
<path fill-rule="evenodd" clip-rule="evenodd" d="M0.70814 430.391H761.552C757.056 433.218 717.172 444.814 584.447 441.802C572.725 441.802 242.397 441.445 170.021 441.445C86.0219 441.445 51.2491 441.785 19.5116 435.628C8.40087 433.473 2.83713 431.693 0.70814 430.391Z" fill="url(#paint8_linear_26_141)"/>
<g filter="url(#filter1_i_26_141)">
<path fill-rule="evenodd" clip-rule="evenodd" d="M308.163 426.113H322.331H439.575H453.743V430.036C453.743 431.539 439.575 431.818 439.575 431.818H322.331C322.331 431.818 308.163 431.539 308.163 430.036V426.113Z" fill="white"/>
</g>
<g style="mix-blend-mode:multiply" opacity="0.07">
<path fill-rule="evenodd" clip-rule="evenodd" d="M308.163 426.112H322.331V431.817C322.331 431.817 308.163 431.537 308.163 430.034C308.163 428.531 308.163 426.112 308.163 426.112Z" fill="url(#paint9_linear_26_141)"/>
</g>
<g style="mix-blend-mode:multiply" opacity="0.07">
<path fill-rule="evenodd" clip-rule="evenodd" d="M453.743 426.112H439.575V431.817C439.575 431.817 453.743 431.537 453.743 430.034C453.743 428.531 453.743 426.112 453.743 426.112Z" fill="url(#paint10_linear_26_141)"/>
</g>
<path d="M93.3442 27.7145H91.8117V29.2471V391.38V392.912H93.3442H668.921H670.453V391.38V29.2471V27.7145H668.921H93.3442Z" stroke="#E1E1E1" stroke-width="3.0651"/>
<defs>
<filter id="filter0_i_26_141" x="0.708984" y="426.114" width="760.844" height="4.27881" filterUnits="userSpaceOnUse" color-interpolation-filters="sRGB">
<feFlood flood-opacity="0" result="BackgroundImageFix"/>
<feBlend mode="normal" in="SourceGraphic" in2="BackgroundImageFix" result="shape"/>
<feColorMatrix in="SourceAlpha" type="matrix" values="0 0 0 0 0 0 0 0 0 0 0 0 0 0 0 0 0 0 127 0" result="hardAlpha"/>
<feOffset dy="1.53255"/>
<feComposite in2="hardAlpha" operator="arithmetic" k2="-1" k3="1"/>
<feColorMatrix type="matrix" values="0 0 0 0 0 0 0 0 0 0 0 0 0 0 0 0 0 0 0.02 0"/>
<feBlend mode="normal" in2="shape" result="effect1_innerShadow_26_141"/>
</filter>
<filter id="filter1_i_26_141" x="308.163" y="426.113" width="145.581" height="5.70508" filterUnits="userSpaceOnUse" color-interpolation-filters="sRGB">
<feFlood flood-opacity="0" result="BackgroundImageFix"/>
<feBlend mode="normal" in="SourceGraphic" in2="BackgroundImageFix" result="shape"/>
<feColorMatrix in="SourceAlpha" type="matrix" values="0 0 0 0 0 0 0 0 0 0 0 0 0 0 0 0 0 0 127 0" result="hardAlpha"/>
<feOffset dy="1.53255"/>
<feComposite in2="hardAlpha" operator="arithmetic" k2="-1" k3="1"/>
<feColorMatrix type="matrix" values="0 0 0 0 0 0 0 0 0 0 0 0 0 0 0 0 0 0 0.03 0"/>
<feBlend mode="normal" in2="shape" result="effect1_innerShadow_26_141"/>
</filter>
<linearGradient id="paint0_linear_26_141" x1="380.935" y1="0.367432" x2="380.935" y2="441.445" gradientUnits="userSpaceOnUse">
<stop offset="0.880227" stop-color="white"/>
<stop offset="1" stop-color="#F8F8F8"/>
</linearGradient>
<linearGradient id="paint1_linear_26_141" x1="0.35498" y1="430.749" x2="761.907" y2="430.749" gradientUnits="userSpaceOnUse">
<stop stop-opacity="0.04"/>
<stop offset="1" stop-color="white" stop-opacity="0.04"/>
</linearGradient>
<linearGradient id="paint2_linear_26_141" x1="769.085" y1="425.139" x2="732.86" y2="425.139" gradientUnits="userSpaceOnUse">
<stop/>
<stop offset="1" stop-color="white"/>
<stop offset="1" stop-color="white"/>
</linearGradient>
<linearGradient id="paint3_linear_26_141" x1="0.35498" y1="430.749" x2="29.4002" y2="430.749" gradientUnits="userSpaceOnUse">
<stop/>
<stop offset="1" stop-color="white"/>
<stop offset="1" stop-color="white"/>
</linearGradient>
<linearGradient id="paint4_linear_26_141" x1="0" y1="445.367" x2="762.261" y2="445.367" gradientUnits="userSpaceOnUse">
<stop stop-opacity="0.07"/>
<stop offset="1" stop-color="#EAEAEA" stop-opacity="0.07"/>
<stop offset="1" stop-color="white" stop-opacity="0.07"/>
</linearGradient>
<linearGradient id="paint5_linear_26_141" x1="0" y1="445.367" x2="762.261" y2="445.367" gradientUnits="userSpaceOnUse">
<stop stop-opacity="0.07"/>
<stop offset="1" stop-color="#EAEAEA" stop-opacity="0.07"/>
<stop offset="1" stop-color="white" stop-opacity="0.07"/>
</linearGradient>
<linearGradient id="paint6_linear_26_141" x1="0" y1="429.678" x2="0" y2="445.367" gradientUnits="userSpaceOnUse">
<stop stop-opacity="0.07"/>
<stop offset="1" stop-color="white" stop-opacity="0.07"/>
</linearGradient>
<linearGradient id="paint7_linear_26_141" x1="0" y1="429.678" x2="0" y2="445.367" gradientUnits="userSpaceOnUse">
<stop stop-color="white" stop-opacity="0.05"/>
<stop offset="1" stop-opacity="0.05"/>
</linearGradient>
<linearGradient id="paint8_linear_26_141" x1="381.13" y1="429.678" x2="381.416" y2="455.456" gradientUnits="userSpaceOnUse">
<stop stop-color="#F9F9F9"/>
<stop offset="1" stop-color="#E8E8E8" stop-opacity="0"/>
</linearGradient>
<linearGradient id="paint9_linear_26_141" x1="307.455" y1="432.174" x2="322.686" y2="432.174" gradientUnits="userSpaceOnUse">
<stop/>
<stop offset="1" stop-color="white"/>
<stop offset="1" stop-color="white"/>
</linearGradient>
<linearGradient id="paint10_linear_26_141" x1="454.098" y1="425.399" x2="439.221" y2="425.399" gradientUnits="userSpaceOnUse">
<stop/>
<stop offset="1" stop-color="white"/>
<stop offset="1" stop-color="white"/>
</linearGradient>
</defs>
</svg>
